G04 #@! TF.GenerationSoftware,KiCad,Pcbnew,7.0.8*
G04 #@! TF.CreationDate,2023-10-15T20:14:19+02:00*
G04 #@! TF.ProjectId,led-tube-extensionboard,6c65642d-7475-4626-952d-657874656e73,rev?*
G04 #@! TF.SameCoordinates,Original*
G04 #@! TF.FileFunction,Soldermask,Top*
G04 #@! TF.FilePolarity,Negative*
%FSLAX46Y46*%
G04 Gerber Fmt 4.6, Leading zero omitted, Abs format (unit mm)*
G04 Created by KiCad (PCBNEW 7.0.8) date 2023-10-15 20:14:19*
%MOMM*%
%LPD*%
G01*
G04 APERTURE LIST*
G04 Aperture macros list*
%AMRoundRect*
0 Rectangle with rounded corners*
0 $1 Rounding radius*
0 $2 $3 $4 $5 $6 $7 $8 $9 X,Y pos of 4 corners*
0 Add a 4 corners polygon primitive as box body*
4,1,4,$2,$3,$4,$5,$6,$7,$8,$9,$2,$3,0*
0 Add four circle primitives for the rounded corners*
1,1,$1+$1,$2,$3*
1,1,$1+$1,$4,$5*
1,1,$1+$1,$6,$7*
1,1,$1+$1,$8,$9*
0 Add four rect primitives between the rounded corners*
20,1,$1+$1,$2,$3,$4,$5,0*
20,1,$1+$1,$4,$5,$6,$7,0*
20,1,$1+$1,$6,$7,$8,$9,0*
20,1,$1+$1,$8,$9,$2,$3,0*%
G04 Aperture macros list end*
%ADD10RoundRect,0.237500X0.237500X-0.300000X0.237500X0.300000X-0.237500X0.300000X-0.237500X-0.300000X0*%
%ADD11R,0.900000X1.500000*%
%ADD12C,4.249987*%
%ADD13C,0.800000*%
G04 APERTURE END LIST*
D10*
X619850000Y-107762500D03*
X619850000Y-106037500D03*
D11*
X617850000Y-95350000D03*
X614550000Y-95350000D03*
X614550000Y-100250000D03*
X617850000Y-100250000D03*
D10*
X619900000Y-194576840D03*
X619900000Y-192851840D03*
D11*
X617900000Y-236496158D03*
X614600000Y-236496158D03*
X614600000Y-241396158D03*
X617900000Y-241396158D03*
D10*
X619900000Y-162062500D03*
X619900000Y-160337500D03*
D11*
X617900000Y-431865386D03*
X614600000Y-431865386D03*
X614600000Y-436765386D03*
X617900000Y-436765386D03*
X617900000Y-507842308D03*
X614600000Y-507842308D03*
X614600000Y-512742308D03*
X617900000Y-512742308D03*
X617900000Y-529550000D03*
X614600000Y-529550000D03*
X614600000Y-534450000D03*
X617900000Y-534450000D03*
D10*
X619900000Y-237962500D03*
X619900000Y-236237500D03*
D11*
X617900000Y-290765388D03*
X614600000Y-290765388D03*
X614600000Y-295665388D03*
X617900000Y-295665388D03*
X617900000Y-377596156D03*
X614600000Y-377596156D03*
X614600000Y-382496156D03*
X617900000Y-382496156D03*
D10*
X619800000Y-85962500D03*
X619800000Y-84237500D03*
D11*
X617900000Y-453573078D03*
X614600000Y-453573078D03*
X614600000Y-458473078D03*
X617900000Y-458473078D03*
D10*
X619900000Y-509362500D03*
X619900000Y-507637500D03*
X619900000Y-390062500D03*
X619900000Y-388337500D03*
X619900000Y-444262500D03*
X619900000Y-442537500D03*
X619900000Y-400862500D03*
X619900000Y-399137500D03*
D11*
X617900000Y-355888464D03*
X614600000Y-355888464D03*
X614600000Y-360788464D03*
X617900000Y-360788464D03*
X617900000Y-214788466D03*
X614600000Y-214788466D03*
X614600000Y-219688466D03*
X617900000Y-219688466D03*
D12*
X606037140Y-545748630D03*
D13*
X606034600Y-548501800D03*
X604993200Y-548298600D03*
X607076000Y-548273200D03*
X604129600Y-547739800D03*
X607990400Y-547714400D03*
X603494600Y-546850800D03*
X608600000Y-546800000D03*
X603266000Y-545758600D03*
X608803200Y-545758600D03*
X608574600Y-544666400D03*
X603520000Y-544615600D03*
X604104200Y-543777400D03*
X607990400Y-543777400D03*
X605018600Y-543193200D03*
X607126800Y-543193200D03*
X606034600Y-543015400D03*
D10*
X619900000Y-324941612D03*
X619900000Y-323216612D03*
X619900000Y-172862500D03*
X619900000Y-171137500D03*
X619900000Y-248862500D03*
X619900000Y-247137500D03*
D11*
X617900000Y-388450002D03*
X614600000Y-388450002D03*
X614600000Y-393350002D03*
X617900000Y-393350002D03*
X617900000Y-486134616D03*
X614600000Y-486134616D03*
X614600000Y-491034616D03*
X617900000Y-491034616D03*
D10*
X619900000Y-433462500D03*
X619900000Y-431737500D03*
D12*
X616037140Y-545748630D03*
D13*
X616034600Y-548501800D03*
X614993200Y-548298600D03*
X617076000Y-548273200D03*
X614129600Y-547739800D03*
X617990400Y-547714400D03*
X613494600Y-546850800D03*
X618600000Y-546800000D03*
X613266000Y-545758600D03*
X618803200Y-545758600D03*
X618574600Y-544666400D03*
X613520000Y-544615600D03*
X614104200Y-543777400D03*
X617990400Y-543777400D03*
X615018600Y-543193200D03*
X617126800Y-543193200D03*
X616034600Y-543015400D03*
D10*
X619900000Y-335662500D03*
X619900000Y-333937500D03*
X619800000Y-64262500D03*
X619800000Y-62537500D03*
D11*
X617900000Y-399303848D03*
X614600000Y-399303848D03*
X614600000Y-404203848D03*
X617900000Y-404203848D03*
X617900000Y-442719232D03*
X614600000Y-442719232D03*
X614600000Y-447619232D03*
X617900000Y-447619232D03*
X617850000Y-84450000D03*
X614550000Y-84450000D03*
X614550000Y-89350000D03*
X617850000Y-89350000D03*
X617900000Y-171373082D03*
X614600000Y-171373082D03*
X614600000Y-176273082D03*
X617900000Y-176273082D03*
X617900000Y-301619234D03*
X614600000Y-301619234D03*
X614600000Y-306519234D03*
X617900000Y-306519234D03*
X617900000Y-366742310D03*
X614600000Y-366742310D03*
X614600000Y-371642310D03*
X617900000Y-371642310D03*
X617900000Y-410157694D03*
X614600000Y-410157694D03*
X614600000Y-415057694D03*
X617900000Y-415057694D03*
D10*
X619850000Y-140312500D03*
X619850000Y-138587500D03*
X619900000Y-357462500D03*
X619900000Y-355737500D03*
D11*
X617900000Y-421011540D03*
X614600000Y-421011540D03*
X614600000Y-425911540D03*
X617900000Y-425911540D03*
X617900000Y-518696154D03*
X614600000Y-518696154D03*
X614600000Y-523596154D03*
X617900000Y-523596154D03*
X617900000Y-160519236D03*
X614600000Y-160519236D03*
X614600000Y-165419236D03*
X617900000Y-165419236D03*
D10*
X619900000Y-346562500D03*
X619900000Y-344837500D03*
X619900000Y-368262500D03*
X619900000Y-366537500D03*
D11*
X617900000Y-475280770D03*
X614600000Y-475280770D03*
X614600000Y-480180770D03*
X617900000Y-480180770D03*
X617900000Y-203934620D03*
X614600000Y-203934620D03*
X614600000Y-208834620D03*
X617900000Y-208834620D03*
D10*
X619900000Y-487662500D03*
X619900000Y-485937500D03*
D11*
X617850000Y-73650000D03*
X614550000Y-73650000D03*
X614550000Y-78550000D03*
X617850000Y-78550000D03*
D10*
X619900000Y-259712500D03*
X619900000Y-257987500D03*
X619900000Y-498562500D03*
X619900000Y-496837500D03*
X619900000Y-476862500D03*
X619900000Y-475137500D03*
D11*
X617900000Y-269057696D03*
X614600000Y-269057696D03*
X614600000Y-273957696D03*
X617900000Y-273957696D03*
X617900000Y-464426924D03*
X614600000Y-464426924D03*
X614600000Y-469326924D03*
X617900000Y-469326924D03*
X617900000Y-496988462D03*
X614600000Y-496988462D03*
X614600000Y-501888462D03*
X617900000Y-501888462D03*
D10*
X619900000Y-313962500D03*
X619900000Y-312237500D03*
D11*
X617900000Y-323326926D03*
X614600000Y-323326926D03*
X614600000Y-328226926D03*
X617900000Y-328226926D03*
X617900000Y-312473080D03*
X614600000Y-312473080D03*
X614600000Y-317373080D03*
X617900000Y-317373080D03*
X617900000Y-193080774D03*
X614600000Y-193080774D03*
X614600000Y-197980774D03*
X617900000Y-197980774D03*
D10*
X619900000Y-531062500D03*
X619900000Y-529337500D03*
D11*
X617900000Y-182226928D03*
X614600000Y-182226928D03*
X614600000Y-187126928D03*
X617900000Y-187126928D03*
D10*
X619900000Y-422662500D03*
X619900000Y-420937500D03*
D11*
X617900000Y-258203850D03*
X614600000Y-258203850D03*
X614600000Y-263103850D03*
X617900000Y-263103850D03*
D10*
X619850000Y-118662500D03*
X619850000Y-116937500D03*
X619900000Y-216212500D03*
X619900000Y-214487500D03*
X619900000Y-183712500D03*
X619900000Y-181987500D03*
D11*
X617900000Y-247350004D03*
X614600000Y-247350004D03*
X614600000Y-252250004D03*
X617900000Y-252250004D03*
X617850000Y-62750000D03*
X614550000Y-62750000D03*
X614550000Y-67650000D03*
X617850000Y-67650000D03*
D10*
X619900000Y-465962500D03*
X619900000Y-464237500D03*
X619900000Y-227112500D03*
X619900000Y-225387500D03*
D11*
X617900000Y-279911542D03*
X614600000Y-279911542D03*
X614600000Y-284811542D03*
X617900000Y-284811542D03*
X617900000Y-334180772D03*
X614600000Y-334180772D03*
X614600000Y-339080772D03*
X617900000Y-339080772D03*
D10*
X619900000Y-303112500D03*
X619900000Y-301387500D03*
D11*
X617900000Y-345034618D03*
X614600000Y-345034618D03*
X614600000Y-349934618D03*
X617900000Y-349934618D03*
X617900000Y-225642312D03*
X614600000Y-225642312D03*
X614600000Y-230542312D03*
X617900000Y-230542312D03*
X617900000Y-149665390D03*
X614600000Y-149665390D03*
X614600000Y-154565390D03*
X617900000Y-154565390D03*
X617900000Y-117103852D03*
X614600000Y-117103852D03*
X614600000Y-122003852D03*
X617900000Y-122003852D03*
X617900000Y-138811544D03*
X614600000Y-138811544D03*
X614600000Y-143711544D03*
X617900000Y-143711544D03*
D10*
X619900000Y-379162500D03*
X619900000Y-377437500D03*
X619900000Y-281486688D03*
X619900000Y-279761688D03*
X619900000Y-411762500D03*
X619900000Y-410037500D03*
D12*
X626037140Y-545748630D03*
D13*
X626034600Y-548501800D03*
X624993200Y-548298600D03*
X627076000Y-548273200D03*
X624129600Y-547739800D03*
X627990400Y-547714400D03*
X623494600Y-546850800D03*
X628600000Y-546800000D03*
X623266000Y-545758600D03*
X628803200Y-545758600D03*
X628574600Y-544666400D03*
X623520000Y-544615600D03*
X624104200Y-543777400D03*
X627990400Y-543777400D03*
X625018600Y-543193200D03*
X627126800Y-543193200D03*
X626034600Y-543015400D03*
D11*
X617900000Y-127957698D03*
X614600000Y-127957698D03*
X614600000Y-132857698D03*
X617900000Y-132857698D03*
D10*
X619850000Y-129462500D03*
X619850000Y-127737500D03*
D11*
X617900000Y-106250000D03*
X614600000Y-106250000D03*
X614600000Y-111150000D03*
X617900000Y-111150000D03*
D10*
X619900000Y-455062500D03*
X619900000Y-453337500D03*
X619900000Y-270562500D03*
X619900000Y-268837500D03*
X619900000Y-520262500D03*
X619900000Y-518537500D03*
X619800000Y-75162500D03*
X619800000Y-73437500D03*
X619800000Y-96862500D03*
X619800000Y-95137500D03*
X619900000Y-151162500D03*
X619900000Y-149437500D03*
X619900000Y-292262500D03*
X619900000Y-290537500D03*
X619900000Y-205412500D03*
X619900000Y-203687500D03*
M02*
