%TF.GenerationSoftware,KiCad,Pcbnew,(6.0.5-0)*%
%TF.CreationDate,2022-05-16T23:59:53+02:00*%
%TF.ProjectId,diodeplate,64696f64-6570-46c6-9174-652e6b696361,rev?*%
%TF.SameCoordinates,Original*%
%TF.FileFunction,Other,Comment*%
%FSLAX46Y46*%
G04 Gerber Fmt 4.6, Leading zero omitted, Abs format (unit mm)*
G04 Created by KiCad (PCBNEW (6.0.5-0)) date 2022-05-16 23:59:53*
%MOMM*%
%LPD*%
G01*
G04 APERTURE LIST*
%ADD10C,0.100000*%
%ADD11C,0.150000*%
G04 APERTURE END LIST*
D10*
%TO.C,U1*%
X225241904Y-163236340D02*
X225003809Y-163236340D01*
X224980000Y-163474435D01*
X225003809Y-163450626D01*
X225051428Y-163426816D01*
X225170476Y-163426816D01*
X225218095Y-163450626D01*
X225241904Y-163474435D01*
X225265714Y-163522054D01*
X225265714Y-163641102D01*
X225241904Y-163688721D01*
X225218095Y-163712530D01*
X225170476Y-163736340D01*
X225051428Y-163736340D01*
X225003809Y-163712530D01*
X224980000Y-163688721D01*
X225860952Y-163736340D02*
X225860952Y-163403007D01*
X225860952Y-163450626D02*
X225884761Y-163426816D01*
X225932380Y-163403007D01*
X226003809Y-163403007D01*
X226051428Y-163426816D01*
X226075238Y-163474435D01*
X226075238Y-163736340D01*
X226075238Y-163474435D02*
X226099047Y-163426816D01*
X226146666Y-163403007D01*
X226218095Y-163403007D01*
X226265714Y-163426816D01*
X226289523Y-163474435D01*
X226289523Y-163736340D01*
X226527619Y-163736340D02*
X226527619Y-163403007D01*
X226527619Y-163450626D02*
X226551428Y-163426816D01*
X226599047Y-163403007D01*
X226670476Y-163403007D01*
X226718095Y-163426816D01*
X226741904Y-163474435D01*
X226741904Y-163736340D01*
X226741904Y-163474435D02*
X226765714Y-163426816D01*
X226813333Y-163403007D01*
X226884761Y-163403007D01*
X226932380Y-163426816D01*
X226956190Y-163474435D01*
X226956190Y-163736340D01*
D11*
X208108571Y-159337530D02*
X208108571Y-158337530D01*
X208680000Y-159337530D02*
X208251428Y-158766102D01*
X208680000Y-158337530D02*
X208108571Y-158908959D01*
X209108571Y-158813721D02*
X209441904Y-158813721D01*
X209584761Y-159337530D02*
X209108571Y-159337530D01*
X209108571Y-158337530D01*
X209584761Y-158337530D01*
X210013333Y-158813721D02*
X210346666Y-158813721D01*
X210489523Y-159337530D02*
X210013333Y-159337530D01*
X210013333Y-158337530D01*
X210489523Y-158337530D01*
X210918095Y-159337530D02*
X210918095Y-158337530D01*
X211299047Y-158337530D01*
X211394285Y-158385150D01*
X211441904Y-158432769D01*
X211489523Y-158528007D01*
X211489523Y-158670864D01*
X211441904Y-158766102D01*
X211394285Y-158813721D01*
X211299047Y-158861340D01*
X210918095Y-158861340D01*
X211918095Y-158956578D02*
X212680000Y-158956578D01*
X213346666Y-158337530D02*
X213537142Y-158337530D01*
X213632380Y-158385150D01*
X213727619Y-158480388D01*
X213775238Y-158670864D01*
X213775238Y-159004197D01*
X213727619Y-159194673D01*
X213632380Y-159289911D01*
X213537142Y-159337530D01*
X213346666Y-159337530D01*
X213251428Y-159289911D01*
X213156190Y-159194673D01*
X213108571Y-159004197D01*
X213108571Y-158670864D01*
X213156190Y-158480388D01*
X213251428Y-158385150D01*
X213346666Y-158337530D01*
X214203809Y-158337530D02*
X214203809Y-159147054D01*
X214251428Y-159242292D01*
X214299047Y-159289911D01*
X214394285Y-159337530D01*
X214584761Y-159337530D01*
X214680000Y-159289911D01*
X214727619Y-159242292D01*
X214775238Y-159147054D01*
X214775238Y-158337530D01*
X215108571Y-158337530D02*
X215680000Y-158337530D01*
X215394285Y-159337530D02*
X215394285Y-158337530D01*
X216680000Y-158337530D02*
X217346666Y-158337530D01*
X216680000Y-159337530D01*
X217346666Y-159337530D01*
X217918095Y-158337530D02*
X218108571Y-158337530D01*
X218203809Y-158385150D01*
X218299047Y-158480388D01*
X218346666Y-158670864D01*
X218346666Y-159004197D01*
X218299047Y-159194673D01*
X218203809Y-159289911D01*
X218108571Y-159337530D01*
X217918095Y-159337530D01*
X217822857Y-159289911D01*
X217727619Y-159194673D01*
X217680000Y-159004197D01*
X217680000Y-158670864D01*
X217727619Y-158480388D01*
X217822857Y-158385150D01*
X217918095Y-158337530D01*
X218775238Y-159337530D02*
X218775238Y-158337530D01*
X219346666Y-159337530D01*
X219346666Y-158337530D01*
X219822857Y-158813721D02*
X220156190Y-158813721D01*
X220299047Y-159337530D02*
X219822857Y-159337530D01*
X219822857Y-158337530D01*
X220299047Y-158337530D01*
D10*
X221706190Y-159548245D02*
X221706190Y-159786340D01*
X221944285Y-159810150D01*
X221920476Y-159786340D01*
X221896666Y-159738721D01*
X221896666Y-159619673D01*
X221920476Y-159572054D01*
X221944285Y-159548245D01*
X221991904Y-159524435D01*
X222110952Y-159524435D01*
X222158571Y-159548245D01*
X222182380Y-159572054D01*
X222206190Y-159619673D01*
X222206190Y-159738721D01*
X222182380Y-159786340D01*
X222158571Y-159810150D01*
X222206190Y-158929197D02*
X221872857Y-158929197D01*
X221920476Y-158929197D02*
X221896666Y-158905388D01*
X221872857Y-158857769D01*
X221872857Y-158786340D01*
X221896666Y-158738721D01*
X221944285Y-158714911D01*
X222206190Y-158714911D01*
X221944285Y-158714911D02*
X221896666Y-158691102D01*
X221872857Y-158643483D01*
X221872857Y-158572054D01*
X221896666Y-158524435D01*
X221944285Y-158500626D01*
X222206190Y-158500626D01*
X222206190Y-158262530D02*
X221872857Y-158262530D01*
X221920476Y-158262530D02*
X221896666Y-158238721D01*
X221872857Y-158191102D01*
X221872857Y-158119673D01*
X221896666Y-158072054D01*
X221944285Y-158048245D01*
X222206190Y-158048245D01*
X221944285Y-158048245D02*
X221896666Y-158024435D01*
X221872857Y-157976816D01*
X221872857Y-157905388D01*
X221896666Y-157857769D01*
X221944285Y-157833959D01*
X222206190Y-157833959D01*
X202241904Y-163236340D02*
X202003809Y-163236340D01*
X201980000Y-163474435D01*
X202003809Y-163450626D01*
X202051428Y-163426816D01*
X202170476Y-163426816D01*
X202218095Y-163450626D01*
X202241904Y-163474435D01*
X202265714Y-163522054D01*
X202265714Y-163641102D01*
X202241904Y-163688721D01*
X202218095Y-163712530D01*
X202170476Y-163736340D01*
X202051428Y-163736340D01*
X202003809Y-163712530D01*
X201980000Y-163688721D01*
X202860952Y-163736340D02*
X202860952Y-163403007D01*
X202860952Y-163450626D02*
X202884761Y-163426816D01*
X202932380Y-163403007D01*
X203003809Y-163403007D01*
X203051428Y-163426816D01*
X203075238Y-163474435D01*
X203075238Y-163736340D01*
X203075238Y-163474435D02*
X203099047Y-163426816D01*
X203146666Y-163403007D01*
X203218095Y-163403007D01*
X203265714Y-163426816D01*
X203289523Y-163474435D01*
X203289523Y-163736340D01*
X203527619Y-163736340D02*
X203527619Y-163403007D01*
X203527619Y-163450626D02*
X203551428Y-163426816D01*
X203599047Y-163403007D01*
X203670476Y-163403007D01*
X203718095Y-163426816D01*
X203741904Y-163474435D01*
X203741904Y-163736340D01*
X203741904Y-163474435D02*
X203765714Y-163426816D01*
X203813333Y-163403007D01*
X203884761Y-163403007D01*
X203932380Y-163426816D01*
X203956190Y-163474435D01*
X203956190Y-163736340D01*
D11*
X211418095Y-165051816D02*
X211894285Y-165051816D01*
X211322857Y-165337530D02*
X211656190Y-164337530D01*
X211989523Y-165337530D01*
X212322857Y-164670864D02*
X212322857Y-165337530D01*
X212322857Y-164766102D02*
X212370476Y-164718483D01*
X212465714Y-164670864D01*
X212608571Y-164670864D01*
X212703809Y-164718483D01*
X212751428Y-164813721D01*
X212751428Y-165337530D01*
X213084761Y-164670864D02*
X213465714Y-164670864D01*
X213227619Y-164337530D02*
X213227619Y-165194673D01*
X213275238Y-165289911D01*
X213370476Y-165337530D01*
X213465714Y-165337530D01*
X214180000Y-165289911D02*
X214084761Y-165337530D01*
X213894285Y-165337530D01*
X213799047Y-165289911D01*
X213751428Y-165194673D01*
X213751428Y-164813721D01*
X213799047Y-164718483D01*
X213894285Y-164670864D01*
X214084761Y-164670864D01*
X214180000Y-164718483D01*
X214227619Y-164813721D01*
X214227619Y-164908959D01*
X213751428Y-165004197D01*
X214656190Y-164670864D02*
X214656190Y-165337530D01*
X214656190Y-164766102D02*
X214703809Y-164718483D01*
X214799047Y-164670864D01*
X214941904Y-164670864D01*
X215037142Y-164718483D01*
X215084761Y-164813721D01*
X215084761Y-165337530D01*
X215560952Y-164670864D02*
X215560952Y-165337530D01*
X215560952Y-164766102D02*
X215608571Y-164718483D01*
X215703809Y-164670864D01*
X215846666Y-164670864D01*
X215941904Y-164718483D01*
X215989523Y-164813721D01*
X215989523Y-165337530D01*
X216894285Y-165337530D02*
X216894285Y-164813721D01*
X216846666Y-164718483D01*
X216751428Y-164670864D01*
X216560952Y-164670864D01*
X216465714Y-164718483D01*
X216894285Y-165289911D02*
X216799047Y-165337530D01*
X216560952Y-165337530D01*
X216465714Y-165289911D01*
X216418095Y-165194673D01*
X216418095Y-165099435D01*
X216465714Y-165004197D01*
X216560952Y-164956578D01*
X216799047Y-164956578D01*
X216894285Y-164908959D01*
D10*
X222580000Y-161885150D02*
X222380000Y-161685150D01*
X200380000Y-164010150D02*
X204980000Y-164010150D01*
X223380000Y-164010150D02*
X223580000Y-164210150D01*
X223380000Y-164010150D02*
X227980000Y-164010150D01*
X227980000Y-164010150D02*
X227780000Y-164210150D01*
X204980000Y-164010150D02*
X204780000Y-164210150D01*
X222580000Y-157285150D02*
X222780000Y-157485150D01*
X223380000Y-164010150D02*
X223580000Y-163810150D01*
X204980000Y-164010150D02*
X204780000Y-163810150D01*
X200380000Y-164010150D02*
X200580000Y-163810150D01*
X222580000Y-157285150D02*
X222380000Y-157485150D01*
X222580000Y-161885150D02*
X222780000Y-161685150D01*
X200380000Y-164010150D02*
X200580000Y-164210150D01*
X222580000Y-161885150D02*
X222580000Y-157285150D01*
X227980000Y-164010150D02*
X227780000Y-163810150D01*
%TD*%
M02*
