%TF.GenerationSoftware,KiCad,Pcbnew,7.0.8*%
%TF.CreationDate,2023-10-15T20:14:32+02:00*%
%TF.ProjectId,led-tube-extensionboard,6c65642d-7475-4626-952d-657874656e73,rev?*%
%TF.SameCoordinates,Original*%
%TF.FileFunction,Drillmap*%
%TF.FilePolarity,Positive*%
%FSLAX45Y45*%
G04 Gerber Fmt 4.5, Leading zero omitted, Abs format (unit mm)*
G04 Created by KiCad (PCBNEW 7.0.8) date 2023-10-15 20:14:32*
%MOMM*%
%LPD*%
G01*
G04 APERTURE LIST*
%ADD10C,0.100000*%
%ADD11C,0.200000*%
%ADD12C,0.424998*%
G04 APERTURE END LIST*
D10*
X60000000Y-5200000D02*
X63200000Y-5200000D01*
X63200000Y-55000000D01*
X60000000Y-55000000D01*
X60000000Y-5200000D01*
D11*
D12*
X60391215Y-54362364D02*
X60816213Y-54787362D01*
X60816213Y-54362364D02*
X60391215Y-54787362D01*
X61391215Y-54362364D02*
X61816213Y-54787362D01*
X61816213Y-54362364D02*
X61391215Y-54787362D01*
X62391215Y-54362364D02*
X62816213Y-54787362D01*
X62816213Y-54362364D02*
X62391215Y-54787362D01*
D11*
X60255777Y-55316484D02*
X60255777Y-55116484D01*
X60255777Y-55116484D02*
X60303396Y-55116484D01*
X60303396Y-55116484D02*
X60331967Y-55126008D01*
X60331967Y-55126008D02*
X60351015Y-55145055D01*
X60351015Y-55145055D02*
X60360539Y-55164103D01*
X60360539Y-55164103D02*
X60370062Y-55202198D01*
X60370062Y-55202198D02*
X60370062Y-55230769D01*
X60370062Y-55230769D02*
X60360539Y-55268865D01*
X60360539Y-55268865D02*
X60351015Y-55287912D01*
X60351015Y-55287912D02*
X60331967Y-55306960D01*
X60331967Y-55306960D02*
X60303396Y-55316484D01*
X60303396Y-55316484D02*
X60255777Y-55316484D01*
X60455777Y-55316484D02*
X60455777Y-55183150D01*
X60455777Y-55221246D02*
X60465301Y-55202198D01*
X60465301Y-55202198D02*
X60474824Y-55192674D01*
X60474824Y-55192674D02*
X60493872Y-55183150D01*
X60493872Y-55183150D02*
X60512920Y-55183150D01*
X60579586Y-55316484D02*
X60579586Y-55183150D01*
X60579586Y-55116484D02*
X60570062Y-55126008D01*
X60570062Y-55126008D02*
X60579586Y-55135531D01*
X60579586Y-55135531D02*
X60589110Y-55126008D01*
X60589110Y-55126008D02*
X60579586Y-55116484D01*
X60579586Y-55116484D02*
X60579586Y-55135531D01*
X60703396Y-55316484D02*
X60684348Y-55306960D01*
X60684348Y-55306960D02*
X60674824Y-55287912D01*
X60674824Y-55287912D02*
X60674824Y-55116484D01*
X60808158Y-55316484D02*
X60789110Y-55306960D01*
X60789110Y-55306960D02*
X60779586Y-55287912D01*
X60779586Y-55287912D02*
X60779586Y-55116484D01*
X61036729Y-55316484D02*
X61036729Y-55116484D01*
X61036729Y-55116484D02*
X61103396Y-55259341D01*
X61103396Y-55259341D02*
X61170062Y-55116484D01*
X61170062Y-55116484D02*
X61170062Y-55316484D01*
X61351015Y-55316484D02*
X61351015Y-55211722D01*
X61351015Y-55211722D02*
X61341491Y-55192674D01*
X61341491Y-55192674D02*
X61322443Y-55183150D01*
X61322443Y-55183150D02*
X61284348Y-55183150D01*
X61284348Y-55183150D02*
X61265301Y-55192674D01*
X61351015Y-55306960D02*
X61331967Y-55316484D01*
X61331967Y-55316484D02*
X61284348Y-55316484D01*
X61284348Y-55316484D02*
X61265301Y-55306960D01*
X61265301Y-55306960D02*
X61255777Y-55287912D01*
X61255777Y-55287912D02*
X61255777Y-55268865D01*
X61255777Y-55268865D02*
X61265301Y-55249817D01*
X61265301Y-55249817D02*
X61284348Y-55240293D01*
X61284348Y-55240293D02*
X61331967Y-55240293D01*
X61331967Y-55240293D02*
X61351015Y-55230769D01*
X61446253Y-55183150D02*
X61446253Y-55383150D01*
X61446253Y-55192674D02*
X61465301Y-55183150D01*
X61465301Y-55183150D02*
X61503396Y-55183150D01*
X61503396Y-55183150D02*
X61522443Y-55192674D01*
X61522443Y-55192674D02*
X61531967Y-55202198D01*
X61531967Y-55202198D02*
X61541491Y-55221246D01*
X61541491Y-55221246D02*
X61541491Y-55278388D01*
X61541491Y-55278388D02*
X61531967Y-55297436D01*
X61531967Y-55297436D02*
X61522443Y-55306960D01*
X61522443Y-55306960D02*
X61503396Y-55316484D01*
X61503396Y-55316484D02*
X61465301Y-55316484D01*
X61465301Y-55316484D02*
X61446253Y-55306960D01*
X61627205Y-55297436D02*
X61636729Y-55306960D01*
X61636729Y-55306960D02*
X61627205Y-55316484D01*
X61627205Y-55316484D02*
X61617682Y-55306960D01*
X61617682Y-55306960D02*
X61627205Y-55297436D01*
X61627205Y-55297436D02*
X61627205Y-55316484D01*
X61627205Y-55192674D02*
X61636729Y-55202198D01*
X61636729Y-55202198D02*
X61627205Y-55211722D01*
X61627205Y-55211722D02*
X61617682Y-55202198D01*
X61617682Y-55202198D02*
X61627205Y-55192674D01*
X61627205Y-55192674D02*
X61627205Y-55211722D01*
X59795000Y-55545000D02*
X59995000Y-55745000D01*
X59995000Y-55545000D02*
X59795000Y-55745000D01*
X60341491Y-55603150D02*
X60341491Y-55736484D01*
X60293872Y-55526960D02*
X60246253Y-55669817D01*
X60246253Y-55669817D02*
X60370062Y-55669817D01*
X60446253Y-55717436D02*
X60455777Y-55726960D01*
X60455777Y-55726960D02*
X60446253Y-55736484D01*
X60446253Y-55736484D02*
X60436729Y-55726960D01*
X60436729Y-55726960D02*
X60446253Y-55717436D01*
X60446253Y-55717436D02*
X60446253Y-55736484D01*
X60531967Y-55555531D02*
X60541491Y-55546008D01*
X60541491Y-55546008D02*
X60560539Y-55536484D01*
X60560539Y-55536484D02*
X60608158Y-55536484D01*
X60608158Y-55536484D02*
X60627205Y-55546008D01*
X60627205Y-55546008D02*
X60636729Y-55555531D01*
X60636729Y-55555531D02*
X60646253Y-55574579D01*
X60646253Y-55574579D02*
X60646253Y-55593627D01*
X60646253Y-55593627D02*
X60636729Y-55622198D01*
X60636729Y-55622198D02*
X60522443Y-55736484D01*
X60522443Y-55736484D02*
X60646253Y-55736484D01*
X60827205Y-55536484D02*
X60731967Y-55536484D01*
X60731967Y-55536484D02*
X60722443Y-55631722D01*
X60722443Y-55631722D02*
X60731967Y-55622198D01*
X60731967Y-55622198D02*
X60751015Y-55612674D01*
X60751015Y-55612674D02*
X60798634Y-55612674D01*
X60798634Y-55612674D02*
X60817682Y-55622198D01*
X60817682Y-55622198D02*
X60827205Y-55631722D01*
X60827205Y-55631722D02*
X60836729Y-55650769D01*
X60836729Y-55650769D02*
X60836729Y-55698388D01*
X60836729Y-55698388D02*
X60827205Y-55717436D01*
X60827205Y-55717436D02*
X60817682Y-55726960D01*
X60817682Y-55726960D02*
X60798634Y-55736484D01*
X60798634Y-55736484D02*
X60751015Y-55736484D01*
X60751015Y-55736484D02*
X60731967Y-55726960D01*
X60731967Y-55726960D02*
X60722443Y-55717436D01*
X60960539Y-55536484D02*
X60979586Y-55536484D01*
X60979586Y-55536484D02*
X60998634Y-55546008D01*
X60998634Y-55546008D02*
X61008158Y-55555531D01*
X61008158Y-55555531D02*
X61017682Y-55574579D01*
X61017682Y-55574579D02*
X61027205Y-55612674D01*
X61027205Y-55612674D02*
X61027205Y-55660293D01*
X61027205Y-55660293D02*
X61017682Y-55698388D01*
X61017682Y-55698388D02*
X61008158Y-55717436D01*
X61008158Y-55717436D02*
X60998634Y-55726960D01*
X60998634Y-55726960D02*
X60979586Y-55736484D01*
X60979586Y-55736484D02*
X60960539Y-55736484D01*
X60960539Y-55736484D02*
X60941491Y-55726960D01*
X60941491Y-55726960D02*
X60931967Y-55717436D01*
X60931967Y-55717436D02*
X60922443Y-55698388D01*
X60922443Y-55698388D02*
X60912920Y-55660293D01*
X60912920Y-55660293D02*
X60912920Y-55612674D01*
X60912920Y-55612674D02*
X60922443Y-55574579D01*
X60922443Y-55574579D02*
X60931967Y-55555531D01*
X60931967Y-55555531D02*
X60941491Y-55546008D01*
X60941491Y-55546008D02*
X60960539Y-55536484D01*
X61112920Y-55736484D02*
X61112920Y-55603150D01*
X61112920Y-55622198D02*
X61122443Y-55612674D01*
X61122443Y-55612674D02*
X61141491Y-55603150D01*
X61141491Y-55603150D02*
X61170063Y-55603150D01*
X61170063Y-55603150D02*
X61189110Y-55612674D01*
X61189110Y-55612674D02*
X61198634Y-55631722D01*
X61198634Y-55631722D02*
X61198634Y-55736484D01*
X61198634Y-55631722D02*
X61208158Y-55612674D01*
X61208158Y-55612674D02*
X61227205Y-55603150D01*
X61227205Y-55603150D02*
X61255777Y-55603150D01*
X61255777Y-55603150D02*
X61274824Y-55612674D01*
X61274824Y-55612674D02*
X61284348Y-55631722D01*
X61284348Y-55631722D02*
X61284348Y-55736484D01*
X61379586Y-55736484D02*
X61379586Y-55603150D01*
X61379586Y-55622198D02*
X61389110Y-55612674D01*
X61389110Y-55612674D02*
X61408158Y-55603150D01*
X61408158Y-55603150D02*
X61436729Y-55603150D01*
X61436729Y-55603150D02*
X61455777Y-55612674D01*
X61455777Y-55612674D02*
X61465301Y-55631722D01*
X61465301Y-55631722D02*
X61465301Y-55736484D01*
X61465301Y-55631722D02*
X61474824Y-55612674D01*
X61474824Y-55612674D02*
X61493872Y-55603150D01*
X61493872Y-55603150D02*
X61522443Y-55603150D01*
X61522443Y-55603150D02*
X61541491Y-55612674D01*
X61541491Y-55612674D02*
X61551015Y-55631722D01*
X61551015Y-55631722D02*
X61551015Y-55736484D01*
X61941491Y-55526960D02*
X61770063Y-55784103D01*
X62198634Y-55536484D02*
X62217682Y-55536484D01*
X62217682Y-55536484D02*
X62236729Y-55546008D01*
X62236729Y-55546008D02*
X62246253Y-55555531D01*
X62246253Y-55555531D02*
X62255777Y-55574579D01*
X62255777Y-55574579D02*
X62265301Y-55612674D01*
X62265301Y-55612674D02*
X62265301Y-55660293D01*
X62265301Y-55660293D02*
X62255777Y-55698388D01*
X62255777Y-55698388D02*
X62246253Y-55717436D01*
X62246253Y-55717436D02*
X62236729Y-55726960D01*
X62236729Y-55726960D02*
X62217682Y-55736484D01*
X62217682Y-55736484D02*
X62198634Y-55736484D01*
X62198634Y-55736484D02*
X62179586Y-55726960D01*
X62179586Y-55726960D02*
X62170063Y-55717436D01*
X62170063Y-55717436D02*
X62160539Y-55698388D01*
X62160539Y-55698388D02*
X62151015Y-55660293D01*
X62151015Y-55660293D02*
X62151015Y-55612674D01*
X62151015Y-55612674D02*
X62160539Y-55574579D01*
X62160539Y-55574579D02*
X62170063Y-55555531D01*
X62170063Y-55555531D02*
X62179586Y-55546008D01*
X62179586Y-55546008D02*
X62198634Y-55536484D01*
X62351015Y-55717436D02*
X62360539Y-55726960D01*
X62360539Y-55726960D02*
X62351015Y-55736484D01*
X62351015Y-55736484D02*
X62341491Y-55726960D01*
X62341491Y-55726960D02*
X62351015Y-55717436D01*
X62351015Y-55717436D02*
X62351015Y-55736484D01*
X62551015Y-55736484D02*
X62436729Y-55736484D01*
X62493872Y-55736484D02*
X62493872Y-55536484D01*
X62493872Y-55536484D02*
X62474825Y-55565055D01*
X62474825Y-55565055D02*
X62455777Y-55584103D01*
X62455777Y-55584103D02*
X62436729Y-55593627D01*
X62722444Y-55536484D02*
X62684348Y-55536484D01*
X62684348Y-55536484D02*
X62665301Y-55546008D01*
X62665301Y-55546008D02*
X62655777Y-55555531D01*
X62655777Y-55555531D02*
X62636729Y-55584103D01*
X62636729Y-55584103D02*
X62627206Y-55622198D01*
X62627206Y-55622198D02*
X62627206Y-55698388D01*
X62627206Y-55698388D02*
X62636729Y-55717436D01*
X62636729Y-55717436D02*
X62646253Y-55726960D01*
X62646253Y-55726960D02*
X62665301Y-55736484D01*
X62665301Y-55736484D02*
X62703396Y-55736484D01*
X62703396Y-55736484D02*
X62722444Y-55726960D01*
X62722444Y-55726960D02*
X62731967Y-55717436D01*
X62731967Y-55717436D02*
X62741491Y-55698388D01*
X62741491Y-55698388D02*
X62741491Y-55650769D01*
X62741491Y-55650769D02*
X62731967Y-55631722D01*
X62731967Y-55631722D02*
X62722444Y-55622198D01*
X62722444Y-55622198D02*
X62703396Y-55612674D01*
X62703396Y-55612674D02*
X62665301Y-55612674D01*
X62665301Y-55612674D02*
X62646253Y-55622198D01*
X62646253Y-55622198D02*
X62636729Y-55631722D01*
X62636729Y-55631722D02*
X62627206Y-55650769D01*
X62808158Y-55536484D02*
X62941491Y-55536484D01*
X62941491Y-55536484D02*
X62855777Y-55736484D01*
X62998634Y-55536484D02*
X63122444Y-55536484D01*
X63122444Y-55536484D02*
X63055777Y-55612674D01*
X63055777Y-55612674D02*
X63084348Y-55612674D01*
X63084348Y-55612674D02*
X63103396Y-55622198D01*
X63103396Y-55622198D02*
X63112920Y-55631722D01*
X63112920Y-55631722D02*
X63122444Y-55650769D01*
X63122444Y-55650769D02*
X63122444Y-55698388D01*
X63122444Y-55698388D02*
X63112920Y-55717436D01*
X63112920Y-55717436D02*
X63103396Y-55726960D01*
X63103396Y-55726960D02*
X63084348Y-55736484D01*
X63084348Y-55736484D02*
X63027206Y-55736484D01*
X63027206Y-55736484D02*
X63008158Y-55726960D01*
X63008158Y-55726960D02*
X62998634Y-55717436D01*
X63198634Y-55536484D02*
X63198634Y-55574579D01*
X63274825Y-55536484D02*
X63274825Y-55574579D01*
X63570063Y-55812674D02*
X63560539Y-55803150D01*
X63560539Y-55803150D02*
X63541491Y-55774579D01*
X63541491Y-55774579D02*
X63531968Y-55755531D01*
X63531968Y-55755531D02*
X63522444Y-55726960D01*
X63522444Y-55726960D02*
X63512920Y-55679341D01*
X63512920Y-55679341D02*
X63512920Y-55641246D01*
X63512920Y-55641246D02*
X63522444Y-55593627D01*
X63522444Y-55593627D02*
X63531968Y-55565055D01*
X63531968Y-55565055D02*
X63541491Y-55546008D01*
X63541491Y-55546008D02*
X63560539Y-55517436D01*
X63560539Y-55517436D02*
X63570063Y-55507912D01*
X63627206Y-55536484D02*
X63751015Y-55536484D01*
X63751015Y-55536484D02*
X63684348Y-55612674D01*
X63684348Y-55612674D02*
X63712920Y-55612674D01*
X63712920Y-55612674D02*
X63731968Y-55622198D01*
X63731968Y-55622198D02*
X63741491Y-55631722D01*
X63741491Y-55631722D02*
X63751015Y-55650769D01*
X63751015Y-55650769D02*
X63751015Y-55698388D01*
X63751015Y-55698388D02*
X63741491Y-55717436D01*
X63741491Y-55717436D02*
X63731968Y-55726960D01*
X63731968Y-55726960D02*
X63712920Y-55736484D01*
X63712920Y-55736484D02*
X63655777Y-55736484D01*
X63655777Y-55736484D02*
X63636729Y-55726960D01*
X63636729Y-55726960D02*
X63627206Y-55717436D01*
X63989110Y-55736484D02*
X63989110Y-55536484D01*
X64074825Y-55736484D02*
X64074825Y-55631722D01*
X64074825Y-55631722D02*
X64065301Y-55612674D01*
X64065301Y-55612674D02*
X64046253Y-55603150D01*
X64046253Y-55603150D02*
X64017682Y-55603150D01*
X64017682Y-55603150D02*
X63998634Y-55612674D01*
X63998634Y-55612674D02*
X63989110Y-55622198D01*
X64198634Y-55736484D02*
X64179587Y-55726960D01*
X64179587Y-55726960D02*
X64170063Y-55717436D01*
X64170063Y-55717436D02*
X64160539Y-55698388D01*
X64160539Y-55698388D02*
X64160539Y-55641246D01*
X64160539Y-55641246D02*
X64170063Y-55622198D01*
X64170063Y-55622198D02*
X64179587Y-55612674D01*
X64179587Y-55612674D02*
X64198634Y-55603150D01*
X64198634Y-55603150D02*
X64227206Y-55603150D01*
X64227206Y-55603150D02*
X64246253Y-55612674D01*
X64246253Y-55612674D02*
X64255777Y-55622198D01*
X64255777Y-55622198D02*
X64265301Y-55641246D01*
X64265301Y-55641246D02*
X64265301Y-55698388D01*
X64265301Y-55698388D02*
X64255777Y-55717436D01*
X64255777Y-55717436D02*
X64246253Y-55726960D01*
X64246253Y-55726960D02*
X64227206Y-55736484D01*
X64227206Y-55736484D02*
X64198634Y-55736484D01*
X64379587Y-55736484D02*
X64360539Y-55726960D01*
X64360539Y-55726960D02*
X64351015Y-55707912D01*
X64351015Y-55707912D02*
X64351015Y-55536484D01*
X64531968Y-55726960D02*
X64512920Y-55736484D01*
X64512920Y-55736484D02*
X64474825Y-55736484D01*
X64474825Y-55736484D02*
X64455777Y-55726960D01*
X64455777Y-55726960D02*
X64446253Y-55707912D01*
X64446253Y-55707912D02*
X64446253Y-55631722D01*
X64446253Y-55631722D02*
X64455777Y-55612674D01*
X64455777Y-55612674D02*
X64474825Y-55603150D01*
X64474825Y-55603150D02*
X64512920Y-55603150D01*
X64512920Y-55603150D02*
X64531968Y-55612674D01*
X64531968Y-55612674D02*
X64541491Y-55631722D01*
X64541491Y-55631722D02*
X64541491Y-55650769D01*
X64541491Y-55650769D02*
X64446253Y-55669817D01*
X64617682Y-55726960D02*
X64636730Y-55736484D01*
X64636730Y-55736484D02*
X64674825Y-55736484D01*
X64674825Y-55736484D02*
X64693872Y-55726960D01*
X64693872Y-55726960D02*
X64703396Y-55707912D01*
X64703396Y-55707912D02*
X64703396Y-55698388D01*
X64703396Y-55698388D02*
X64693872Y-55679341D01*
X64693872Y-55679341D02*
X64674825Y-55669817D01*
X64674825Y-55669817D02*
X64646253Y-55669817D01*
X64646253Y-55669817D02*
X64627206Y-55660293D01*
X64627206Y-55660293D02*
X64617682Y-55641246D01*
X64617682Y-55641246D02*
X64617682Y-55631722D01*
X64617682Y-55631722D02*
X64627206Y-55612674D01*
X64627206Y-55612674D02*
X64646253Y-55603150D01*
X64646253Y-55603150D02*
X64674825Y-55603150D01*
X64674825Y-55603150D02*
X64693872Y-55612674D01*
X64770063Y-55812674D02*
X64779587Y-55803150D01*
X64779587Y-55803150D02*
X64798634Y-55774579D01*
X64798634Y-55774579D02*
X64808158Y-55755531D01*
X64808158Y-55755531D02*
X64817682Y-55726960D01*
X64817682Y-55726960D02*
X64827206Y-55679341D01*
X64827206Y-55679341D02*
X64827206Y-55641246D01*
X64827206Y-55641246D02*
X64817682Y-55593627D01*
X64817682Y-55593627D02*
X64808158Y-55565055D01*
X64808158Y-55565055D02*
X64798634Y-55546008D01*
X64798634Y-55546008D02*
X64779587Y-55517436D01*
X64779587Y-55517436D02*
X64770063Y-55507912D01*
X65131968Y-55812674D02*
X65122444Y-55803150D01*
X65122444Y-55803150D02*
X65103396Y-55774579D01*
X65103396Y-55774579D02*
X65093872Y-55755531D01*
X65093872Y-55755531D02*
X65084349Y-55726960D01*
X65084349Y-55726960D02*
X65074825Y-55679341D01*
X65074825Y-55679341D02*
X65074825Y-55641246D01*
X65074825Y-55641246D02*
X65084349Y-55593627D01*
X65084349Y-55593627D02*
X65093872Y-55565055D01*
X65093872Y-55565055D02*
X65103396Y-55546008D01*
X65103396Y-55546008D02*
X65122444Y-55517436D01*
X65122444Y-55517436D02*
X65131968Y-55507912D01*
X65208158Y-55603150D02*
X65208158Y-55736484D01*
X65208158Y-55622198D02*
X65217682Y-55612674D01*
X65217682Y-55612674D02*
X65236730Y-55603150D01*
X65236730Y-55603150D02*
X65265301Y-55603150D01*
X65265301Y-55603150D02*
X65284349Y-55612674D01*
X65284349Y-55612674D02*
X65293872Y-55631722D01*
X65293872Y-55631722D02*
X65293872Y-55736484D01*
X65417682Y-55736484D02*
X65398634Y-55726960D01*
X65398634Y-55726960D02*
X65389111Y-55717436D01*
X65389111Y-55717436D02*
X65379587Y-55698388D01*
X65379587Y-55698388D02*
X65379587Y-55641246D01*
X65379587Y-55641246D02*
X65389111Y-55622198D01*
X65389111Y-55622198D02*
X65398634Y-55612674D01*
X65398634Y-55612674D02*
X65417682Y-55603150D01*
X65417682Y-55603150D02*
X65446253Y-55603150D01*
X65446253Y-55603150D02*
X65465301Y-55612674D01*
X65465301Y-55612674D02*
X65474825Y-55622198D01*
X65474825Y-55622198D02*
X65484349Y-55641246D01*
X65484349Y-55641246D02*
X65484349Y-55698388D01*
X65484349Y-55698388D02*
X65474825Y-55717436D01*
X65474825Y-55717436D02*
X65465301Y-55726960D01*
X65465301Y-55726960D02*
X65446253Y-55736484D01*
X65446253Y-55736484D02*
X65417682Y-55736484D01*
X65541492Y-55603150D02*
X65617682Y-55603150D01*
X65570063Y-55536484D02*
X65570063Y-55707912D01*
X65570063Y-55707912D02*
X65579587Y-55726960D01*
X65579587Y-55726960D02*
X65598634Y-55736484D01*
X65598634Y-55736484D02*
X65617682Y-55736484D01*
X65836730Y-55603150D02*
X65836730Y-55803150D01*
X65836730Y-55612674D02*
X65855777Y-55603150D01*
X65855777Y-55603150D02*
X65893873Y-55603150D01*
X65893873Y-55603150D02*
X65912920Y-55612674D01*
X65912920Y-55612674D02*
X65922444Y-55622198D01*
X65922444Y-55622198D02*
X65931968Y-55641246D01*
X65931968Y-55641246D02*
X65931968Y-55698388D01*
X65931968Y-55698388D02*
X65922444Y-55717436D01*
X65922444Y-55717436D02*
X65912920Y-55726960D01*
X65912920Y-55726960D02*
X65893873Y-55736484D01*
X65893873Y-55736484D02*
X65855777Y-55736484D01*
X65855777Y-55736484D02*
X65836730Y-55726960D01*
X66046253Y-55736484D02*
X66027206Y-55726960D01*
X66027206Y-55726960D02*
X66017682Y-55707912D01*
X66017682Y-55707912D02*
X66017682Y-55536484D01*
X66208158Y-55736484D02*
X66208158Y-55631722D01*
X66208158Y-55631722D02*
X66198634Y-55612674D01*
X66198634Y-55612674D02*
X66179587Y-55603150D01*
X66179587Y-55603150D02*
X66141492Y-55603150D01*
X66141492Y-55603150D02*
X66122444Y-55612674D01*
X66208158Y-55726960D02*
X66189111Y-55736484D01*
X66189111Y-55736484D02*
X66141492Y-55736484D01*
X66141492Y-55736484D02*
X66122444Y-55726960D01*
X66122444Y-55726960D02*
X66112920Y-55707912D01*
X66112920Y-55707912D02*
X66112920Y-55688865D01*
X66112920Y-55688865D02*
X66122444Y-55669817D01*
X66122444Y-55669817D02*
X66141492Y-55660293D01*
X66141492Y-55660293D02*
X66189111Y-55660293D01*
X66189111Y-55660293D02*
X66208158Y-55650769D01*
X66274825Y-55603150D02*
X66351015Y-55603150D01*
X66303396Y-55536484D02*
X66303396Y-55707912D01*
X66303396Y-55707912D02*
X66312920Y-55726960D01*
X66312920Y-55726960D02*
X66331968Y-55736484D01*
X66331968Y-55736484D02*
X66351015Y-55736484D01*
X66493873Y-55726960D02*
X66474825Y-55736484D01*
X66474825Y-55736484D02*
X66436730Y-55736484D01*
X66436730Y-55736484D02*
X66417682Y-55726960D01*
X66417682Y-55726960D02*
X66408158Y-55707912D01*
X66408158Y-55707912D02*
X66408158Y-55631722D01*
X66408158Y-55631722D02*
X66417682Y-55612674D01*
X66417682Y-55612674D02*
X66436730Y-55603150D01*
X66436730Y-55603150D02*
X66474825Y-55603150D01*
X66474825Y-55603150D02*
X66493873Y-55612674D01*
X66493873Y-55612674D02*
X66503396Y-55631722D01*
X66503396Y-55631722D02*
X66503396Y-55650769D01*
X66503396Y-55650769D02*
X66408158Y-55669817D01*
X66674825Y-55736484D02*
X66674825Y-55536484D01*
X66674825Y-55726960D02*
X66655777Y-55736484D01*
X66655777Y-55736484D02*
X66617682Y-55736484D01*
X66617682Y-55736484D02*
X66598634Y-55726960D01*
X66598634Y-55726960D02*
X66589111Y-55717436D01*
X66589111Y-55717436D02*
X66579587Y-55698388D01*
X66579587Y-55698388D02*
X66579587Y-55641246D01*
X66579587Y-55641246D02*
X66589111Y-55622198D01*
X66589111Y-55622198D02*
X66598634Y-55612674D01*
X66598634Y-55612674D02*
X66617682Y-55603150D01*
X66617682Y-55603150D02*
X66655777Y-55603150D01*
X66655777Y-55603150D02*
X66674825Y-55612674D01*
X66751015Y-55812674D02*
X66760539Y-55803150D01*
X66760539Y-55803150D02*
X66779587Y-55774579D01*
X66779587Y-55774579D02*
X66789111Y-55755531D01*
X66789111Y-55755531D02*
X66798634Y-55726960D01*
X66798634Y-55726960D02*
X66808158Y-55679341D01*
X66808158Y-55679341D02*
X66808158Y-55641246D01*
X66808158Y-55641246D02*
X66798634Y-55593627D01*
X66798634Y-55593627D02*
X66789111Y-55565055D01*
X66789111Y-55565055D02*
X66779587Y-55546008D01*
X66779587Y-55546008D02*
X66760539Y-55517436D01*
X66760539Y-55517436D02*
X66751015Y-55507912D01*
M02*
