M48
; DRILL file {KiCad (6.0.5-0)} date 2022 May 16, Monday 23:59:53
; FORMAT={-:-/ absolute / inch / decimal}
; #@! TF.CreationDate,2022-05-16T23:59:53+02:00
; #@! TF.GenerationSoftware,Kicad,Pcbnew,(6.0.5-0)
; #@! TF.FileFunction,Plated,1,2,PTH
FMAT,2
INCH
; #@! TA.AperFunction,Plated,PTH,ViaDrill
T1C0.0157
; #@! TA.AperFunction,Plated,PTH,ComponentDrill
T2C0.0276
%
G90
G05
T1
X5.5416Y-5.242
X5.55Y-5.8217
X5.665Y-4.6555
X5.665Y-5.5461
X5.702Y-6.137
X5.7063Y-6.4102
X5.7685Y-4.9705
X5.8425Y-6.6909
X5.8685Y-4.1079
X5.8941Y-6.9496
X5.9465Y-4.4102
X6.113Y-7.226
X6.1547Y-3.6299
X6.2701Y-7.4161
X6.2736Y-3.9106
X6.4126Y-7.7232
X6.5406Y-3.2457
X6.6429Y-7.8311
X6.6803Y-3.4933
X6.8634Y-8.1209
X7.0327Y-2.915
X7.1264Y-8.2004
X7.174Y-3.1642
X7.3Y-7.8673
X7.3846Y-8.4205
X7.5874Y-2.6925
X7.6244Y-8.3098
X7.7222Y-2.9364
X7.7413Y-8.3087
X7.7626Y-7.8673
X7.7764Y-7.2071
X7.7909Y-6.7484
X7.7937Y-6.6736
X7.8378Y-7.952
X7.9134Y-6.9213
X7.9461Y-8.6197
X8.0012Y-6.778
X8.1673Y-2.5874
X8.3205Y-8.3783
X8.3516Y-2.8402
X8.3744Y-8.3098
X8.4217Y-8.3693
X8.4409Y-8.3154
X8.6098Y-8.3591
X8.7063Y-8.0677
X8.7528Y-2.6236
X8.8693Y-7.2697
X8.8937Y-7.2075
X8.8937Y-8.0677
X8.9453Y-2.8472
X9.1323Y-7.3614
X9.1953Y-8.628
X9.2264Y-8.4181
X9.228Y-7.3571
X9.2488Y-7.3945
X9.3287Y-2.7319
X9.3461Y-7.3598
X9.3824Y-7.2687
X9.6209Y-2.9433
X9.6539Y-8.1598
X9.7598Y-8.4531
X9.8547Y-2.9661
X10.0899Y-3.2577
X10.1685Y-7.8929
X10.2724Y-8.1827
X10.3484Y-3.2736
X10.5583Y-3.5858
X10.6185Y-7.4965
X10.7429Y-7.7984
X10.7472Y-3.7323
X10.9059Y-4.0787
X10.9957Y-7.0276
X11.0587Y-7.3748
X11.0807Y-4.2087
X11.2681Y-6.4984
X11.2878Y-4.5343
X11.3256Y-6.8346
X11.3547Y-4.748
X11.3736Y-5.0827
X11.3803Y-5.926
X11.3992Y-5.3343
X11.4358Y-6.2776
X11.5496Y-5.674
T2
G00X8.261Y-8.526
M15
G01X8.261Y-8.5693
M16
G05
G00X8.261Y-8.7004
M15
G01X8.261Y-8.724
M16
G05
G00X8.6012Y-8.526
M15
G01X8.6012Y-8.5693
M16
G05
G00X8.6012Y-8.7004
M15
G01X8.6012Y-8.724
M16
G05
T0
M30
