%TF.GenerationSoftware,KiCad,Pcbnew,7.0.8*%
%TF.CreationDate,2023-10-15T20:14:32+02:00*%
%TF.ProjectId,led-tube-extensionboard,6c65642d-7475-4626-952d-657874656e73,rev?*%
%TF.SameCoordinates,Original*%
%TF.FileFunction,Drillmap*%
%TF.FilePolarity,Positive*%
%FSLAX45Y45*%
G04 Gerber Fmt 4.5, Leading zero omitted, Abs format (unit mm)*
G04 Created by KiCad (PCBNEW 7.0.8) date 2023-10-15 20:14:32*
%MOMM*%
%LPD*%
G01*
G04 APERTURE LIST*
%ADD10C,0.100000*%
%ADD11C,0.200000*%
G04 APERTURE END LIST*
D10*
X60000000Y-5200000D02*
X63200000Y-5200000D01*
X63200000Y-55000000D01*
X60000000Y-55000000D01*
X60000000Y-5200000D01*
D11*
X60255777Y-55316484D02*
X60255777Y-55116484D01*
X60255777Y-55116484D02*
X60303396Y-55116484D01*
X60303396Y-55116484D02*
X60331967Y-55126008D01*
X60331967Y-55126008D02*
X60351015Y-55145055D01*
X60351015Y-55145055D02*
X60360539Y-55164103D01*
X60360539Y-55164103D02*
X60370062Y-55202198D01*
X60370062Y-55202198D02*
X60370062Y-55230769D01*
X60370062Y-55230769D02*
X60360539Y-55268865D01*
X60360539Y-55268865D02*
X60351015Y-55287912D01*
X60351015Y-55287912D02*
X60331967Y-55306960D01*
X60331967Y-55306960D02*
X60303396Y-55316484D01*
X60303396Y-55316484D02*
X60255777Y-55316484D01*
X60455777Y-55316484D02*
X60455777Y-55183150D01*
X60455777Y-55221246D02*
X60465301Y-55202198D01*
X60465301Y-55202198D02*
X60474824Y-55192674D01*
X60474824Y-55192674D02*
X60493872Y-55183150D01*
X60493872Y-55183150D02*
X60512920Y-55183150D01*
X60579586Y-55316484D02*
X60579586Y-55183150D01*
X60579586Y-55116484D02*
X60570062Y-55126008D01*
X60570062Y-55126008D02*
X60579586Y-55135531D01*
X60579586Y-55135531D02*
X60589110Y-55126008D01*
X60589110Y-55126008D02*
X60579586Y-55116484D01*
X60579586Y-55116484D02*
X60579586Y-55135531D01*
X60703396Y-55316484D02*
X60684348Y-55306960D01*
X60684348Y-55306960D02*
X60674824Y-55287912D01*
X60674824Y-55287912D02*
X60674824Y-55116484D01*
X60808158Y-55316484D02*
X60789110Y-55306960D01*
X60789110Y-55306960D02*
X60779586Y-55287912D01*
X60779586Y-55287912D02*
X60779586Y-55116484D01*
X61036729Y-55316484D02*
X61036729Y-55116484D01*
X61036729Y-55116484D02*
X61103396Y-55259341D01*
X61103396Y-55259341D02*
X61170062Y-55116484D01*
X61170062Y-55116484D02*
X61170062Y-55316484D01*
X61351015Y-55316484D02*
X61351015Y-55211722D01*
X61351015Y-55211722D02*
X61341491Y-55192674D01*
X61341491Y-55192674D02*
X61322443Y-55183150D01*
X61322443Y-55183150D02*
X61284348Y-55183150D01*
X61284348Y-55183150D02*
X61265301Y-55192674D01*
X61351015Y-55306960D02*
X61331967Y-55316484D01*
X61331967Y-55316484D02*
X61284348Y-55316484D01*
X61284348Y-55316484D02*
X61265301Y-55306960D01*
X61265301Y-55306960D02*
X61255777Y-55287912D01*
X61255777Y-55287912D02*
X61255777Y-55268865D01*
X61255777Y-55268865D02*
X61265301Y-55249817D01*
X61265301Y-55249817D02*
X61284348Y-55240293D01*
X61284348Y-55240293D02*
X61331967Y-55240293D01*
X61331967Y-55240293D02*
X61351015Y-55230769D01*
X61446253Y-55183150D02*
X61446253Y-55383150D01*
X61446253Y-55192674D02*
X61465301Y-55183150D01*
X61465301Y-55183150D02*
X61503396Y-55183150D01*
X61503396Y-55183150D02*
X61522443Y-55192674D01*
X61522443Y-55192674D02*
X61531967Y-55202198D01*
X61531967Y-55202198D02*
X61541491Y-55221246D01*
X61541491Y-55221246D02*
X61541491Y-55278388D01*
X61541491Y-55278388D02*
X61531967Y-55297436D01*
X61531967Y-55297436D02*
X61522443Y-55306960D01*
X61522443Y-55306960D02*
X61503396Y-55316484D01*
X61503396Y-55316484D02*
X61465301Y-55316484D01*
X61465301Y-55316484D02*
X61446253Y-55306960D01*
X61627205Y-55297436D02*
X61636729Y-55306960D01*
X61636729Y-55306960D02*
X61627205Y-55316484D01*
X61627205Y-55316484D02*
X61617682Y-55306960D01*
X61617682Y-55306960D02*
X61627205Y-55297436D01*
X61627205Y-55297436D02*
X61627205Y-55316484D01*
X61627205Y-55192674D02*
X61636729Y-55202198D01*
X61636729Y-55202198D02*
X61627205Y-55211722D01*
X61627205Y-55211722D02*
X61617682Y-55202198D01*
X61617682Y-55202198D02*
X61627205Y-55192674D01*
X61627205Y-55192674D02*
X61627205Y-55211722D01*
M02*
