G04 #@! TF.GenerationSoftware,KiCad,Pcbnew,7.0.8*
G04 #@! TF.CreationDate,2023-10-15T20:14:19+02:00*
G04 #@! TF.ProjectId,led-tube-extensionboard,6c65642d-7475-4626-952d-657874656e73,rev?*
G04 #@! TF.SameCoordinates,Original*
G04 #@! TF.FileFunction,Copper,L2,Bot*
G04 #@! TF.FilePolarity,Positive*
%FSLAX46Y46*%
G04 Gerber Fmt 4.6, Leading zero omitted, Abs format (unit mm)*
G04 Created by KiCad (PCBNEW 7.0.8) date 2023-10-15 20:14:19*
%MOMM*%
%LPD*%
G01*
G04 APERTURE LIST*
G04 APERTURE END LIST*
G04 #@! TA.AperFunction,Conductor*
G36*
X631642539Y-52320185D02*
G01*
X631688294Y-52372989D01*
X631699500Y-52424500D01*
X631699500Y-549575500D01*
X631679815Y-549642539D01*
X631627011Y-549688294D01*
X631575500Y-549699500D01*
X600424500Y-549699500D01*
X600357461Y-549679815D01*
X600311706Y-549627011D01*
X600300500Y-549575500D01*
X600300500Y-545748637D01*
X603706656Y-545748637D01*
X603726592Y-546052802D01*
X603726593Y-546052812D01*
X603726594Y-546052819D01*
X603726596Y-546052829D01*
X603786064Y-546351798D01*
X603786067Y-546351812D01*
X603884055Y-546640471D01*
X604018876Y-546913862D01*
X604018885Y-546913877D01*
X604188244Y-547167340D01*
X604389238Y-547396531D01*
X604568214Y-547553488D01*
X604618431Y-547597527D01*
X604871898Y-547766888D01*
X604871901Y-547766889D01*
X604871907Y-547766893D01*
X605132574Y-547895439D01*
X605145302Y-547901716D01*
X605433966Y-547999705D01*
X605732951Y-548059176D01*
X605961009Y-548074124D01*
X605961013Y-548074124D01*
X606113267Y-548074124D01*
X606113271Y-548074124D01*
X606341329Y-548059176D01*
X606640314Y-547999705D01*
X606928978Y-547901716D01*
X607202382Y-547766888D01*
X607455849Y-547597527D01*
X607685041Y-547396531D01*
X607886037Y-547167339D01*
X608055398Y-546913872D01*
X608190226Y-546640468D01*
X608288215Y-546351804D01*
X608347686Y-546052819D01*
X608367624Y-545748637D01*
X613706656Y-545748637D01*
X613726592Y-546052802D01*
X613726593Y-546052812D01*
X613726594Y-546052819D01*
X613726596Y-546052829D01*
X613786064Y-546351798D01*
X613786067Y-546351812D01*
X613884055Y-546640471D01*
X614018876Y-546913862D01*
X614018885Y-546913877D01*
X614188244Y-547167340D01*
X614389238Y-547396531D01*
X614568214Y-547553488D01*
X614618431Y-547597527D01*
X614871898Y-547766888D01*
X614871901Y-547766889D01*
X614871907Y-547766893D01*
X615132574Y-547895439D01*
X615145302Y-547901716D01*
X615433966Y-547999705D01*
X615732951Y-548059176D01*
X615961009Y-548074124D01*
X615961013Y-548074124D01*
X616113267Y-548074124D01*
X616113271Y-548074124D01*
X616341329Y-548059176D01*
X616640314Y-547999705D01*
X616928978Y-547901716D01*
X617202382Y-547766888D01*
X617455849Y-547597527D01*
X617685041Y-547396531D01*
X617886037Y-547167339D01*
X618055398Y-546913872D01*
X618190226Y-546640468D01*
X618288215Y-546351804D01*
X618347686Y-546052819D01*
X618367624Y-545748637D01*
X623706656Y-545748637D01*
X623726592Y-546052802D01*
X623726593Y-546052812D01*
X623726594Y-546052819D01*
X623726596Y-546052829D01*
X623786064Y-546351798D01*
X623786067Y-546351812D01*
X623884055Y-546640471D01*
X624018876Y-546913862D01*
X624018885Y-546913877D01*
X624188244Y-547167340D01*
X624389238Y-547396531D01*
X624568214Y-547553488D01*
X624618431Y-547597527D01*
X624871898Y-547766888D01*
X624871901Y-547766889D01*
X624871907Y-547766893D01*
X625132574Y-547895439D01*
X625145302Y-547901716D01*
X625433966Y-547999705D01*
X625732951Y-548059176D01*
X625961009Y-548074124D01*
X625961013Y-548074124D01*
X626113267Y-548074124D01*
X626113271Y-548074124D01*
X626341329Y-548059176D01*
X626640314Y-547999705D01*
X626928978Y-547901716D01*
X627202382Y-547766888D01*
X627455849Y-547597527D01*
X627685041Y-547396531D01*
X627886037Y-547167339D01*
X628055398Y-546913872D01*
X628190226Y-546640468D01*
X628288215Y-546351804D01*
X628347686Y-546052819D01*
X628367624Y-545748630D01*
X628367624Y-545748622D01*
X628347687Y-545444457D01*
X628347686Y-545444441D01*
X628288215Y-545145456D01*
X628190226Y-544856792D01*
X628183949Y-544844064D01*
X628055403Y-544583397D01*
X628055394Y-544583382D01*
X628053111Y-544579966D01*
X627886037Y-544329921D01*
X627841998Y-544279704D01*
X627685041Y-544100728D01*
X627455850Y-543899734D01*
X627202387Y-543730375D01*
X627202372Y-543730366D01*
X626928981Y-543595545D01*
X626640322Y-543497557D01*
X626640316Y-543497555D01*
X626640314Y-543497555D01*
X626341329Y-543438084D01*
X626113271Y-543423136D01*
X625961009Y-543423136D01*
X625732951Y-543438084D01*
X625732945Y-543438085D01*
X625732940Y-543438086D01*
X625433971Y-543497554D01*
X625433957Y-543497557D01*
X625145298Y-543595545D01*
X624871907Y-543730366D01*
X624871892Y-543730375D01*
X624618429Y-543899734D01*
X624389238Y-544100728D01*
X624188244Y-544329919D01*
X624018885Y-544583382D01*
X624018876Y-544583397D01*
X623884055Y-544856788D01*
X623786067Y-545145447D01*
X623786064Y-545145461D01*
X623726596Y-545444430D01*
X623726592Y-545444457D01*
X623706656Y-545748622D01*
X623706656Y-545748637D01*
X618367624Y-545748637D01*
X618367624Y-545748630D01*
X618367624Y-545748622D01*
X618347687Y-545444457D01*
X618347686Y-545444441D01*
X618288215Y-545145456D01*
X618190226Y-544856792D01*
X618183949Y-544844064D01*
X618055403Y-544583397D01*
X618055394Y-544583382D01*
X618053111Y-544579966D01*
X617886037Y-544329921D01*
X617841998Y-544279704D01*
X617685041Y-544100728D01*
X617455850Y-543899734D01*
X617202387Y-543730375D01*
X617202372Y-543730366D01*
X616928981Y-543595545D01*
X616640322Y-543497557D01*
X616640316Y-543497555D01*
X616640314Y-543497555D01*
X616341329Y-543438084D01*
X616113271Y-543423136D01*
X615961009Y-543423136D01*
X615732951Y-543438084D01*
X615732945Y-543438085D01*
X615732940Y-543438086D01*
X615433971Y-543497554D01*
X615433957Y-543497557D01*
X615145298Y-543595545D01*
X614871907Y-543730366D01*
X614871892Y-543730375D01*
X614618429Y-543899734D01*
X614389238Y-544100728D01*
X614188244Y-544329919D01*
X614018885Y-544583382D01*
X614018876Y-544583397D01*
X613884055Y-544856788D01*
X613786067Y-545145447D01*
X613786064Y-545145461D01*
X613726596Y-545444430D01*
X613726592Y-545444457D01*
X613706656Y-545748622D01*
X613706656Y-545748637D01*
X608367624Y-545748637D01*
X608367624Y-545748630D01*
X608367624Y-545748622D01*
X608347687Y-545444457D01*
X608347686Y-545444441D01*
X608288215Y-545145456D01*
X608190226Y-544856792D01*
X608183949Y-544844064D01*
X608055403Y-544583397D01*
X608055394Y-544583382D01*
X608053111Y-544579966D01*
X607886037Y-544329921D01*
X607841998Y-544279704D01*
X607685041Y-544100728D01*
X607455850Y-543899734D01*
X607202387Y-543730375D01*
X607202372Y-543730366D01*
X606928981Y-543595545D01*
X606640322Y-543497557D01*
X606640316Y-543497555D01*
X606640314Y-543497555D01*
X606341329Y-543438084D01*
X606113271Y-543423136D01*
X605961009Y-543423136D01*
X605732951Y-543438084D01*
X605732945Y-543438085D01*
X605732940Y-543438086D01*
X605433971Y-543497554D01*
X605433957Y-543497557D01*
X605145298Y-543595545D01*
X604871907Y-543730366D01*
X604871892Y-543730375D01*
X604618429Y-543899734D01*
X604389238Y-544100728D01*
X604188244Y-544329919D01*
X604018885Y-544583382D01*
X604018876Y-544583397D01*
X603884055Y-544856788D01*
X603786067Y-545145447D01*
X603786064Y-545145461D01*
X603726596Y-545444430D01*
X603726592Y-545444457D01*
X603706656Y-545748622D01*
X603706656Y-545748637D01*
X600300500Y-545748637D01*
X600300500Y-52424500D01*
X600320185Y-52357461D01*
X600372989Y-52311706D01*
X600424500Y-52300500D01*
X631575500Y-52300500D01*
X631642539Y-52320185D01*
G37*
G04 #@! TD.AperFunction*
M02*
